<svg xmlns="http://www.w3.org/2000/svg" viewBox="0 0 365 80" role="img"><title>VarsityScholar</title><rect width="80" height="80" rx="21" fill="#113d42"/>
<path d="M13 23h8l8 24 8-24h8L33 56h-8z" fill="#8de0c0"/>
<path d="M64 26c-3-3-7-4-11-4-6 0-10 3-10 8 0 5 4 7 10 9 6 2 9 4 9 8 0 5-4 8-10 8-4 0-8-1-11-4" fill="none" stroke="#f1fff9" stroke-width="6" stroke-linecap="round"/>
<path d="M15 62l24 5 26-5" fill="none" stroke="#8de0c0" stroke-width="2.5" stroke-linecap="round" stroke-linejoin="round"/><path d="M10 1493H397L793 391L1188 1493H1575L1022 0H563Z" transform="translate(99.000 53) scale(0.01611328125 -0.01611328125)" fill="#183038"/><path d="M674 504Q562 504 505.5 466.0Q449 428 449 354Q449 286 494.5 247.5Q540 209 621 209Q722 209 791.0 281.5Q860 354 860 463V504ZM1221 639V0H860V166Q788 64 698.0 17.5Q608 -29 479 -29Q305 -29 196.5 72.5Q88 174 88 336Q88 533 223.5 625.0Q359 717 649 717H860V745Q860 830 793.0 869.5Q726 909 584 909Q469 909 370.0 886.0Q271 863 186 817V1090Q301 1118 417.0 1132.5Q533 1147 649 1147Q952 1147 1086.5 1027.5Q1221 908 1221 639Z" transform="translate(123.940 53) scale(0.01611328125 -0.01611328125)" fill="#183038"/><path d="M1004 815Q957 837 910.5 847.5Q864 858 817 858Q679 858 604.5 769.5Q530 681 530 516V0H172V1120H530V936Q599 1046 688.5 1096.5Q778 1147 903 1147Q921 1147 942.0 1145.5Q963 1144 1003 1139Z" transform="translate(145.608 53) scale(0.01611328125 -0.01611328125)" fill="#183038"/><path d="M1047 1085V813Q932 861 825.0 885.0Q718 909 623 909Q521 909 471.5 883.5Q422 858 422 805Q422 762 459.5 739.0Q497 716 594 705L657 696Q932 661 1027.0 581.0Q1122 501 1122 330Q1122 151 990.0 61.0Q858 -29 596 -29Q485 -29 366.5 -11.5Q248 6 123 41V313Q230 261 342.5 235.0Q455 209 571 209Q676 209 729.0 238.0Q782 267 782 324Q782 372 745.5 395.5Q709 419 600 432L537 440Q298 470 202.0 551.0Q106 632 106 797Q106 975 228.0 1061.0Q350 1147 602 1147Q701 1147 810.0 1132.0Q919 1117 1047 1085Z" transform="translate(161.283 53) scale(0.01611328125 -0.01611328125)" fill="#183038"/><path d="M172 1120H530V0H172ZM172 1556H530V1264H172Z" transform="translate(180.325 53) scale(0.01611328125 -0.01611328125)" fill="#183038"/><path d="M563 1438V1120H932V864H563V389Q563 311 594.0 283.5Q625 256 717 256H901V0H594Q382 0 293.5 88.5Q205 177 205 389V864H27V1120H205V1438Z" transform="translate(191.036 53) scale(0.01611328125 -0.01611328125)" fill="#183038"/><path d="M25 1120H383L684 360L940 1120H1298L827 -106Q756 -293 661.5 -367.5Q567 -442 412 -442H205V-207H317Q408 -207 449.5 -178.0Q491 -149 514 -74L524 -43Z" transform="translate(206.211 53) scale(0.01611328125 -0.01611328125)" fill="#183038"/><path d="M1227 1446V1130Q1104 1185 987.0 1213.0Q870 1241 766 1241Q628 1241 562.0 1203.0Q496 1165 496 1085Q496 1025 540.5 991.5Q585 958 702 934L866 901Q1115 851 1220.0 749.0Q1325 647 1325 459Q1325 212 1178.5 91.5Q1032 -29 731 -29Q589 -29 446.0 -2.0Q303 25 160 78V403Q303 327 436.5 288.5Q570 250 694 250Q820 250 887.0 292.0Q954 334 954 412Q954 482 908.5 520.0Q863 558 727 588L578 621Q354 669 250.5 774.0Q147 879 147 1057Q147 1280 291.0 1400.0Q435 1520 705 1520Q828 1520 958.0 1501.5Q1088 1483 1227 1446Z" transform="translate(227.122 53) scale(0.01611328125 -0.01611328125)" fill="#146c5b"/><path d="M1077 1085V793Q1004 843 930.5 867.0Q857 891 778 891Q628 891 544.5 803.5Q461 716 461 559Q461 402 544.5 314.5Q628 227 778 227Q862 227 937.5 252.0Q1013 277 1077 326V33Q993 2 906.5 -13.5Q820 -29 733 -29Q430 -29 259.0 126.5Q88 282 88 559Q88 836 259.0 991.5Q430 1147 733 1147Q821 1147 906.5 1131.5Q992 1116 1077 1085Z" transform="translate(250.289 53) scale(0.01611328125 -0.01611328125)" fill="#146c5b"/><path d="M1298 682V0H938V111V520Q938 667 931.5 722.0Q925 777 909 803Q888 838 852.0 857.5Q816 877 770 877Q658 877 594.0 790.5Q530 704 530 551V0H172V1556H530V956Q611 1054 702.0 1100.5Q793 1147 903 1147Q1097 1147 1197.5 1028.0Q1298 909 1298 682Z" transform="translate(269.251 53) scale(0.01611328125 -0.01611328125)" fill="#146c5b"/><path d="M705 891Q586 891 523.5 805.5Q461 720 461 559Q461 398 523.5 312.5Q586 227 705 227Q822 227 884.0 312.5Q946 398 946 559Q946 720 884.0 805.5Q822 891 705 891ZM705 1147Q994 1147 1156.5 991.0Q1319 835 1319 559Q1319 283 1156.5 127.0Q994 -29 705 -29Q415 -29 251.5 127.0Q88 283 88 559Q88 835 251.5 991.0Q415 1147 705 1147Z" transform="translate(292.144 53) scale(0.01611328125 -0.01611328125)" fill="#146c5b"/><path d="M172 1556H530V0H172Z" transform="translate(314.215 53) scale(0.01611328125 -0.01611328125)" fill="#146c5b"/><path d="M674 504Q562 504 505.5 466.0Q449 428 449 354Q449 286 494.5 247.5Q540 209 621 209Q722 209 791.0 281.5Q860 354 860 463V504ZM1221 639V0H860V166Q788 64 698.0 17.5Q608 -29 479 -29Q305 -29 196.5 72.5Q88 174 88 336Q88 533 223.5 625.0Q359 717 649 717H860V745Q860 830 793.0 869.5Q726 909 584 909Q469 909 370.0 886.0Q271 863 186 817V1090Q301 1118 417.0 1132.5Q533 1147 649 1147Q952 1147 1086.5 1027.5Q1221 908 1221 639Z" transform="translate(324.927 53) scale(0.01611328125 -0.01611328125)" fill="#146c5b"/><path d="M1004 815Q957 837 910.5 847.5Q864 858 817 858Q679 858 604.5 769.5Q530 681 530 516V0H172V1120H530V936Q599 1046 688.5 1096.5Q778 1147 903 1147Q921 1147 942.0 1145.5Q963 1144 1003 1139Z" transform="translate(346.596 53) scale(0.01611328125 -0.01611328125)" fill="#146c5b"/></svg>